# xmcd CD database file
#
# Track frame offsets:
#	150
#	11354
#	30462
#	42766
#	67503
#	80725
#	103316
#	119070
#	137585
#	151609
#	171632
#
# Disc length: 2492 seconds
#
# Revision: 0
# Processed by: cddbd v1.5.2PL0 Copyright (c) Steve Scherf et al.
# Submitted via: CDex 1.51
#
DISCID=8609ba0b
DTITLE=Diane Tell - Docteur Boris and Mister Vian
DYEAR=2009
DGENRE=Jazz
TTITLE0=J'voudrais encore amoureuse
TTITLE1=Rue de la flemme
TTITLE2=Voyage au paradis
TTITLE3=J'en ai marre de l'amour
TTITLE4=Ma chansonnette
TTITLE5=Vous auriez bien pu
TTITLE6=Moi sans toi
TTITLE7=Nanna's lied
TTITLE8=Lui, toi et moi
TTITLE9=Toi qui a pris mon coeur
TTITLE10=Celui qui tient le monde dans ses mains
EXTD=YEAR: 2009
EXTT0=
EXTT1=
EXTT2=
EXTT3=
EXTT4=
EXTT5=
EXTT6=
EXTT7=
EXTT8=
EXTT9=
EXTT10=
PLAYORDER=
